<mxfile host="app.diagrams.net" modified="2024-06-23T13:54:49.464Z" agent="Mozilla/5.0 (Macintosh; Intel Mac OS X 10_15_7) AppleWebKit/537.36 (KHTML, like Gecko) Chrome/126.0.0.0 Safari/537.36" version="24.4.10" etag="5KJLyNZLXEVbEQpZPs78" type="github">
  <diagram name="Page-1" id="LtzkvoZE5wQOxvXeWPpe">
    <mxGraphModel>
      <root>
        <mxCell id="0" />
        <mxCell id="1" parent="0" />
      </root>
    </mxGraphModel>
  </diagram>
</mxfile>
